# Blender v2.76 (sub 0) OBJ File: 'room.blend'
# www.blender.org
mtllib arena.mtl
o BoxMedium.001_Cube.002
v -2.461144 0.305598 0.360000
v -2.461144 0.305598 0.000000
v -2.802143 -0.060079 0.000000
v -2.802143 -0.060079 0.360000
v -2.197857 0.060079 0.360000
v -2.197857 0.060079 -0.000000
v -2.538856 -0.305598 0.000000
v -2.538856 -0.305598 0.360000
vt 0.782069 0.297211
vt 0.976670 0.297211
vt 0.976670 0.702789
vt 0.782069 0.702789
vt 0.587467 0.297211
vt 0.587467 0.702789
vt 0.392865 0.702789
vt 0.392865 0.297211
vt 0.587467 0.005194
vt 0.392865 0.005194
vt 0.198263 0.297211
vt 0.198264 0.702789
vt 0.392865 0.994806
vt 0.587467 0.994806
vn -0.731400 0.682000 0.000000
vn 0.731400 -0.682000 0.000000
vn 0.682000 0.731400 -0.000000
vn -0.000000 -0.000000 -1.000000
vn -0.682000 -0.731400 0.000000
vn 0.000000 -0.000000 1.000000
usemtl rocks
s off
f 1/1/1 2/2/1 3/3/1 4/4/1
f 5/5/2 8/6/2 7/7/2 6/8/2
f 1/9/3 5/5/3 6/8/3 2/10/3
f 2/11/4 6/8/4 7/7/4 3/12/4
f 3/13/5 7/7/5 8/6/5 4/14/5
f 5/5/6 1/1/6 4/4/6 8/6/6
o BoxLarge.001_Cube.000
v -1.055367 -1.232099 0.000000
v -0.801796 -1.775884 0.000000
v -0.801796 -1.775884 0.800000
v -1.055367 -1.232099 0.800000
v -0.602213 -1.020790 -0.000000
v -0.348642 -1.564575 0.000000
v -0.348642 -1.564574 0.800000
v -0.602213 -1.020790 0.800000
vt 0.703365 0.339506
vt 0.904721 0.339506
vt 0.904721 0.742376
vt 0.703365 0.742376
vt 0.535568 0.339506
vt 0.535568 0.742376
vt 0.334211 0.742376
vt 0.334211 0.339506
vt 0.535568 0.087712
vt 0.334211 0.087713
vt 0.166414 0.339506
vt 0.166414 0.742376
vt 0.334211 0.994170
vt 0.535568 0.994170
vn -0.906300 -0.422600 0.000000
vn 0.906300 0.422600 -0.000000
vn 0.000000 -0.000000 -1.000000
vn 0.422600 -0.906300 0.000000
vn -0.000000 0.000000 1.000000
vn -0.422600 0.906300 0.000000
usemtl bricks
s off
f 9/15/7 10/16/7 11/17/7 12/18/7
f 13/19/8 16/20/8 15/21/8 14/22/8
f 9/23/9 13/19/9 14/22/9 10/24/9
f 10/25/10 14/22/10 15/21/10 11/26/10
f 11/27/11 15/21/11 16/20/11 12/28/11
f 13/19/12 9/15/12 12/18/12 16/20/12
o Room_Cube.001
v -5.000000 -3.000000 0.000000
v -5.000000 -3.000000 3.000000
v -5.000000 3.000000 0.000000
v -5.000000 3.000000 3.000000
v 5.006340 -3.000000 0.000000
v 5.006340 -3.000000 3.000000
v 5.006340 3.000000 0.000000
v 5.006340 3.000000 3.000000
v -5.000000 -3.000000 0.066024
v -5.000000 3.000000 0.066024
v 5.006340 3.000000 0.066024
v 5.006340 -3.000000 0.066024
vt 17.764046 45.020905
vt 17.762415 44.554577
vt -0.005833 44.554577
vt -0.004202 45.020897
vt -0.523003 44.560394
vt -0.005833 -0.003963
vt -0.523002 0.001853
vt -0.007462 -0.470290
vt 17.762417 -0.003963
vt 17.760786 -0.470286
vt 18.279587 -0.009776
vt 18.279585 44.548756
vt -0.001117 54.220139
vt 90.431686 54.220154
vt 90.431709 -0.005160
vt -0.001106 -0.005160
vt -0.001117 80.736115
vt 90.431702 80.736115
vt -26.517057 -0.005167
vt -26.517080 54.220139
vt 90.431709 -26.521141
vt -0.001106 -26.521107
vt 116.947678 54.220158
vt 116.947678 -0.005160
vn 1.000000 0.000000 0.000000
vn 0.000000 -1.000000 0.000000
vn -1.000000 0.000000 0.000000
vn 0.000000 1.000000 0.000000
vn 0.000000 0.000000 1.000000
vn 0.000000 0.000000 -1.000000
usemtl carpet
s off
f 25/29/13 17/30/13 19/31/13 26/32/13
f 26/33/14 19/31/14 23/34/14 27/35/14
f 27/36/15 23/34/15 21/37/15 28/38/15
f 28/39/16 21/37/16 17/30/16 25/40/16
f 17/30/17 21/37/17 23/34/17 19/31/17
usemtl plaster
f 22/41/18 18/42/18 20/43/18 24/44/18
f 22/41/16 28/45/16 25/46/16 18/42/16
f 24/44/15 27/47/15 28/48/15 22/41/15
f 20/43/14 26/49/14 27/50/14 24/44/14
f 18/42/13 25/51/13 26/52/13 20/43/13
o BoxSmall_Cube.004
v 2.183662 0.332520 0.300747
v 2.443470 0.182520 0.300747
v 2.296791 -0.071535 0.000179
v 2.036983 0.078465 0.000179
v 2.140724 0.258149 0.384563
v 2.400532 0.108149 0.384563
v 2.253853 -0.145907 0.083995
v 1.994045 0.004094 0.083995
vt 0.544975 0.190246
vt 0.841058 0.190246
vt 0.841058 0.814460
vt 0.544975 0.814460
vt 0.426541 0.190246
vt 0.426541 0.814460
vt 0.130458 0.814460
vt 0.130458 0.190247
vt 0.426541 0.011899
vt 0.130458 0.011900
vt 0.012024 0.190246
vt 0.012024 0.814460
vt 0.130458 0.992807
vt 0.426541 0.992806
vn 0.357800 0.619800 -0.698500
vn -0.357800 -0.619800 0.698500
vn 0.349200 0.604900 0.715600
vn 0.866000 -0.500000 -0.000000
vn -0.349200 -0.604900 -0.715600
vn -0.866000 0.500000 0.000000
usemtl leaves
s off
f 29/53/19 30/54/19 31/55/19 32/56/19
f 33/57/20 36/58/20 35/59/20 34/60/20
f 29/61/21 33/57/21 34/60/21 30/62/21
f 30/63/22 34/60/22 35/59/22 31/64/22
f 31/65/23 35/59/23 36/58/23 32/66/23
f 33/57/24 29/53/24 32/56/24 36/58/24
o BoxLarge_Cube.005
v 2.397470 1.135045 0.000000
v 2.917085 0.835045 0.000000
v 2.517085 0.142225 0.000000
v 1.997470 0.442225 0.000000
v 2.397470 1.135045 0.500000
v 2.917085 0.835045 0.500000
v 2.517085 0.142225 0.500000
v 1.997470 0.442225 0.500000
vt 0.703365 0.339506
vt 0.904721 0.339506
vt 0.904721 0.742376
vt 0.703365 0.742376
vt 0.535568 0.339506
vt 0.535568 0.742376
vt 0.334211 0.742376
vt 0.334211 0.339506
vt 0.535568 0.087712
vt 0.334211 0.087713
vt 0.166414 0.339506
vt 0.166414 0.742376
vt 0.334211 0.994170
vt 0.535568 0.994170
vn 0.000000 0.000000 -1.000000
vn 0.000000 0.000000 1.000000
vn 0.500000 0.866000 0.000000
vn 0.866000 -0.500000 -0.000000
vn -0.500000 -0.866000 -0.000000
vn -0.866000 0.500000 0.000000
usemtl bricks
s off
f 37/67/25 38/68/25 39/69/25 40/70/25
f 41/71/26 44/72/26 43/73/26 42/74/26
f 37/75/27 41/71/27 42/74/27 38/76/27
f 38/77/28 42/74/28 43/73/28 39/78/28
f 39/79/29 43/73/29 44/72/29 40/80/29
f 41/71/30 37/67/30 40/70/30 44/72/30
o BoxMedium_Cube.006
v 2.243116 1.318635 0.000000
v 2.243116 0.958635 0.000000
v 1.743116 0.958635 0.000000
v 1.743116 1.318635 0.000000
v 2.243116 1.318635 0.360000
v 2.243116 0.958635 0.360000
v 1.743116 0.958635 0.360000
v 1.743116 1.318635 0.360000
vt 0.782069 0.297211
vt 0.976670 0.297211
vt 0.976670 0.702789
vt 0.782069 0.702789
vt 0.587467 0.297211
vt 0.587467 0.702789
vt 0.392865 0.702789
vt 0.392865 0.297211
vt 0.587467 0.005194
vt 0.392865 0.005194
vt 0.198263 0.297211
vt 0.198264 0.702789
vt 0.392865 0.994806
vt 0.587467 0.994806
vn 0.000000 0.000000 -1.000000
vn -0.000000 0.000000 1.000000
vn 1.000000 0.000000 -0.000000
vn -0.000000 -1.000000 -0.000000
vn -1.000000 0.000000 -0.000000
vn 0.000000 1.000000 -0.000000
usemtl rocks
s off
f 45/81/31 46/82/31 47/83/31 48/84/31
f 49/85/32 52/86/32 51/87/32 50/88/32
f 45/89/33 49/85/33 50/88/33 46/90/33
f 46/91/34 50/88/34 51/87/34 47/92/34
f 47/93/35 51/87/35 52/86/35 48/94/35
f 49/85/36 45/81/36 48/84/36 52/86/36
o UZHPoster_Plane.002
v 5.006339 2.050000 1.000000
v 5.006339 0.550000 1.000000
v 5.006339 2.050000 2.000000
v 5.006339 0.550000 2.000000
v 5.005339 2.050000 2.000000
v 5.005339 2.050000 1.000000
v 5.005339 0.550000 1.000000
v 5.005339 0.550000 2.000000
vt 0.000094 0.000094
vt 0.000094 0.888816
vt 0.999906 0.888816
vt 0.999906 0.000094
vn 1.000000 0.000000 0.000000
vn -1.000000 0.000000 0.000000
vn 0.000000 0.000000 -1.000000
vn 0.000000 -1.000000 0.000000
vn 0.000000 1.000000 0.000000
vn 0.000000 0.000000 1.000000
usemtl uzh
s off
f 53/95/37 55/96/37 56/97/37 54/98/37
f 58/95/38 59/98/38 60/97/38 57/96/38
f 53/95/39 54/98/39 59/98/39 58/95/39
f 54/98/40 56/97/40 60/97/40 59/98/40
f 55/96/41 53/95/41 58/95/41 57/96/41
f 56/97/42 55/96/42 57/96/42 60/97/42
o RPGPoster_Plane.004
v 5.006339 -0.550000 1.000000
v 5.006339 -2.050000 1.000000
v 5.006339 -0.550000 2.000000
v 5.006339 -2.050000 2.000000
v 5.005339 -0.550000 2.000000
v 5.005339 -0.550000 1.000000
v 5.005339 -2.050000 1.000000
v 5.005339 -2.050000 2.000000
vt 0.185127 0.190209
vt 0.185127 0.869464
vt 0.775977 0.869464
vt 0.775977 0.190209
vn 1.000000 0.000000 0.000000
vn -1.000000 0.000000 0.000000
vn 0.000000 -1.000000 0.000000
vn 0.000000 1.000000 0.000000
vn 0.000000 0.000000 1.000000
vn 0.000000 0.000000 -1.000000
usemtl rpg
s off
f 61/99/43 63/100/43 64/101/43 62/102/43
f 66/99/44 67/102/44 68/101/44 65/100/44
f 62/102/45 64/101/45 68/101/45 67/102/45
f 63/100/46 61/99/46 66/99/46 65/100/46
f 64/101/47 63/100/47 65/100/47 68/101/47
f 61/99/48 62/102/48 67/102/48 66/99/48
